<?xml version="1.0" encoding="utf-8"?>
<!-- Generator: Adobe Illustrator 16.0.4, SVG Export Plug-In . SVG Version: 6.00 Build 0)  -->
<!DOCTYPE svg PUBLIC "-//W3C//DTD SVG 1.1//EN" "http://www.w3.org/Graphics/SVG/1.1/DTD/svg11.dtd">
<svg version="1.1" id="Layer_1" xmlns="http://www.w3.org/2000/svg" xmlns:xlink="http://www.w3.org/1999/xlink" x="0px" y="0px"
	 width="22px" height="22px" viewBox="0 0 22 22" enable-background="new 0 0 22 22" xml:space="preserve">
<g id="miu">
	<g id="circle_arrow-back_previous_outline_stroke">
		<g>
			<path id="path-1" fill="#DEDEDE" d="M22,11c0,6.075-4.925,11-11,11S0,17.075,0,11S4.925,0,11,0S22,4.925,22,11L22,11z M1,11
				c0,5.522,4.477,10,10,10c5.522,0,10-4.478,10-10c0-5.523-4.478-10-10-10C5.477,1,1,5.477,1,11L1,11z M16.5,11l-3-4h-1l2.75,3.501
				H5.5V11.5h9.75L12.5,15h1L16.5,11L16.5,11z"/>
		</g>
		<g>
			<path id="path-1_1_" fill="#DEDEDE" d="M22,11c0,6.075-4.925,11-11,11S0,17.075,0,11S4.925,0,11,0S22,4.925,22,11L22,11z M1,11
				c0,5.522,4.477,10,10,10c5.522,0,10-4.478,10-10c0-5.523-4.478-10-10-10C5.477,1,1,5.477,1,11L1,11z M16.5,11l-3-4h-1l2.75,3.501
				H5.5V11.5h9.75L12.5,15h1L16.5,11L16.5,11z"/>
		</g>
	</g>
</g>
</svg>
