<?xml version="1.0" encoding="utf-8"?>
<!-- Generator: Adobe Illustrator 16.0.4, SVG Export Plug-In . SVG Version: 6.00 Build 0)  -->
<!DOCTYPE svg PUBLIC "-//W3C//DTD SVG 1.1//EN" "http://www.w3.org/Graphics/SVG/1.1/DTD/svg11.dtd">
<svg version="1.1" id="Layer_1" xmlns="http://www.w3.org/2000/svg" xmlns:xlink="http://www.w3.org/1999/xlink" x="0px" y="0px"
	 width="22px" height="22px" viewBox="0 0 22 22" enable-background="new 0 0 22 22" xml:space="preserve">
<g id="miu">
	<g id="circle_arrow-back_previous_outline_stroke">
		<g>
			<path id="path-1" fill="#7D7D7D" d="M0,11.003c0-6.075,4.925-11,11-11c6.076,0,11,4.925,11,11s-4.925,11-11,11
				C4.924,22.003,0,17.078,0,11.003L0,11.003z M21,11.003c0-5.522-4.477-10-10-10c-5.522,0-10,4.478-10,10c0,5.523,4.478,10,10,10
				C16.523,21.003,21,16.526,21,11.003L21,11.003z M5.5,11.003l3,4h1l-2.75-3.501h9.75v-0.999H6.75l2.75-3.5h-1L5.5,11.003
				L5.5,11.003z"/>
		</g>
		<g>
			<path id="path-1_1_" fill="#7D7D7D" d="M0,11.003c0-6.075,4.925-11,11-11c6.076,0,11,4.925,11,11s-4.925,11-11,11
				C4.924,22.003,0,17.078,0,11.003L0,11.003z M21,11.003c0-5.522-4.477-10-10-10c-5.522,0-10,4.478-10,10c0,5.523,4.478,10,10,10
				C16.523,21.003,21,16.526,21,11.003L21,11.003z M5.5,11.003l3,4h1l-2.75-3.501h9.75v-0.999H6.75l2.75-3.5h-1L5.5,11.003
				L5.5,11.003z"/>
		</g>
	</g>
</g>
</svg>
