<?xml version="1.0" encoding="utf-8"?>
<!-- Generator: Adobe Illustrator 17.1.0, SVG Export Plug-In . SVG Version: 6.00 Build 0)  -->
<!DOCTYPE svg PUBLIC "-//W3C//DTD SVG 1.1//EN" "http://www.w3.org/Graphics/SVG/1.1/DTD/svg11.dtd">
<svg version="1.1" id="Layer_1" xmlns="http://www.w3.org/2000/svg" xmlns:xlink="http://www.w3.org/1999/xlink" x="0px" y="0px"
	 viewBox="0 0 69 261" enable-background="new 0 0 69 261" xml:space="preserve">
<circle fill="#E3DCD2" cx="34.5" cy="34.5" r="34.5"/>
<circle fill="#E3DCD2" cx="34.5" cy="130.5" r="34.5"/>
<g>
	<path fill="#E3DCD2" d="M34.5,199c15.2,0,27.5,12.3,27.5,27.5c0,15.2-12.3,27.5-27.5,27.5S7,241.6,7,226.5
		C7,211.3,19.3,199,34.5,199 M34.5,192C15.4,192,0,207.4,0,226.5c0,19,15.4,34.5,34.5,34.5c19,0,34.5-15.4,34.5-34.5
		C69,207.4,53.5,192,34.5,192L34.5,192z"/>
</g>
</svg>
