<?xml version="1.0" encoding="utf-8"?>
<!-- Generator: Adobe Illustrator 16.0.4, SVG Export Plug-In . SVG Version: 6.00 Build 0)  -->
<!DOCTYPE svg PUBLIC "-//W3C//DTD SVG 1.1//EN" "http://www.w3.org/Graphics/SVG/1.1/DTD/svg11.dtd">
<svg version="1.1" id="Layer_1" xmlns="http://www.w3.org/2000/svg" xmlns:xlink="http://www.w3.org/1999/xlink" x="0px" y="0px"
	 width="18px" height="18px" viewBox="0 0 18 18" enable-background="new 0 0 18 18" xml:space="preserve">
<g>
	<g>
		<path fill="#D22042" d="M9,0C4.03,0,0,4.029,0,9s4.03,9,9,9c4.971,0,9-4.029,9-9S13.971,0,9,0z M9,16.602
			c-4.191,0-7.601-3.41-7.601-7.602c0-4.191,3.41-7.601,7.601-7.601c4.191,0,7.602,3.41,7.602,7.601
			C16.602,13.191,13.191,16.602,9,16.602z M12.464,10.915c-0.341-0.294-0.75-0.731-1.354-0.64c-0.635,0.096-0.789,0.814-1.371,0.933
			c-0.39,0.079-0.78-0.228-1.06-0.457C8.1,10.277,7.646,9.748,7.271,9.16C7.106,8.9,6.839,8.443,6.961,8.008
			C7.036,7.74,7.343,7.58,7.546,7.405c0.205-0.177,0.476-0.34,0.548-0.64C8.225,6.231,7.901,5.75,7.637,5.339
			C7.366,4.917,7.01,4.304,6.467,4.407C6.228,4.452,6.071,4.628,5.9,4.773c-0.17,0.145-0.357,0.286-0.475,0.42
			C4.729,5.989,4.501,7.263,4.932,8.503c0.345,0.993,0.969,1.891,1.645,2.649c0.688,0.772,1.417,1.465,2.34,1.957
			c0.472,0.252,0.992,0.473,1.646,0.494c0.665,0.021,1.244-0.131,1.718-0.439c0.196-0.127,0.369-0.32,0.566-0.493
			c0.194-0.169,0.419-0.343,0.44-0.622C13.322,11.562,12.792,11.199,12.464,10.915z"/>
	</g>
</g>
</svg>
