<?xml version="1.0" encoding="utf-8"?>
<!-- Generator: Adobe Illustrator 16.0.4, SVG Export Plug-In . SVG Version: 6.00 Build 0)  -->
<!DOCTYPE svg PUBLIC "-//W3C//DTD SVG 1.1//EN" "http://www.w3.org/Graphics/SVG/1.1/DTD/svg11.dtd">
<svg version="1.1" id="Layer_1" xmlns="http://www.w3.org/2000/svg" xmlns:xlink="http://www.w3.org/1999/xlink" x="0px" y="0px"
	 width="19.992px" height="19.991px" viewBox="0 0 19.992 19.991" enable-background="new 0 0 19.992 19.991" xml:space="preserve">
<path fill="#E4DDD2" d="M19.723,17.093l-5.118-5.118c0.73-1.193,1.173-2.583,1.173-4.086C15.778,3.533,12.245,0,7.889,0
	C3.533,0,0,3.533,0,7.889s3.533,7.889,7.89,7.889c1.503,0,2.893-0.441,4.086-1.171l5.118,5.116c0.358,0.359,0.955,0.355,1.313,0
	l1.315-1.315C20.082,18.048,20.082,17.451,19.723,17.093z M7.888,13.148c-2.904,0-5.26-2.354-5.26-5.26
	c0-2.904,2.355-5.259,5.26-5.259c2.905,0,5.26,2.354,5.26,5.259C13.148,10.793,10.794,13.148,7.888,13.148z"/>
</svg>
